<svg height='100px' width='100px'  fill="#000000" xmlns:dc="http://purl.org/dc/elements/1.1/" xmlns:cc="http://creativecommons.org/ns#" xmlns:rdf="http://www.w3.org/1999/02/22-rdf-syntax-ns#" xmlns:svg="http://www.w3.org/2000/svg" xmlns="http://www.w3.org/2000/svg" xmlns:sodipodi="http://sodipodi.sourceforge.net/DTD/sodipodi-0.dtd" xmlns:inkscape="http://www.inkscape.org/namespaces/inkscape" viewBox="0 0 100 100" version="1.1" x="0px" y="0px"><g transform="translate(0,-952.36216)"><path style="color:#000000;font-style:normal;font-variant:normal;font-weight:normal;font-stretch:normal;font-size:medium;line-height:normal;font-family:sans-serif;text-indent:0;text-align:start;text-decoration:none;text-decoration-line:none;text-decoration-style:solid;text-decoration-color:#000000;letter-spacing:normal;word-spacing:normal;text-transform:none;direction:ltr;block-progression:tb;writing-mode:lr-tb;baseline-shift:baseline;text-anchor:start;white-space:normal;clip-rule:nonzero;display:inline;overflow:visible;visibility:visible;opacity:1;isolation:auto;mix-blend-mode:normal;color-interpolation:sRGB;color-interpolation-filters:linearRGB;solid-color:#000000;solid-opacity:1;fill:#000000;fill-opacity:1;fill-rule:nonzero;stroke:none;stroke-width:10;stroke-linecap:round;stroke-linejoin:bevel;stroke-miterlimit:4;stroke-dasharray:none;stroke-dashoffset:0;stroke-opacity:1;color-rendering:auto;image-rendering:auto;shape-rendering:auto;text-rendering:auto;enable-background:accumulate" d="m 49.974881,958.31945 c -5.959281,0 -10.806142,4.84685 -10.806142,10.80614 0.0035,5.99648 4.84847,10.80559 10.806142,10.80559 5.996483,0 10.856377,-4.80911 10.856377,-10.80559 0,-5.95929 -4.859894,-10.80614 -10.856377,-10.80614 z m -32.274493,4.2773 c -5.959278,0 -10.806138,4.84628 -10.806138,10.80558 0.003,5.99645 4.848466,10.80615 10.806138,10.80615 5.996483,0 10.856377,-4.8097 10.856377,-10.80615 0,-5.9593 -4.859894,-10.80558 -10.856377,-10.80558 z m 64.548421,0 c -5.959279,0 -10.806139,4.84628 -10.806139,10.80558 0.0035,5.99645 4.84847,10.80615 10.806139,10.80615 5.996486,0 10.856377,-4.8097 10.856377,-10.80615 0,-5.9593 -4.859891,-10.80558 -10.856377,-10.80558 z m -32.249092,20.56638 c -7.050176,0 -12.725791,6.54215 -12.725791,14.66859 l 0,7.21238 c 4.052014,-0.3789 8.315499,-0.5848 12.726355,-0.5848 4.410743,0 8.673386,0.2059 12.725225,0.5848 l 0,-7.21238 c 0,-8.12644 -5.675616,-14.66859 -12.725789,-14.66859 z m -32.274493,4.27674 C 10.675048,987.43987 5,993.98258 5,1002.109 l 0,13.2665 c 0.40336,-0.3969 0.84167,-0.7807 1.31062,-1.1503 2.55125,-2.0106 6.083683,-3.7215 10.390715,-5.1572 3.978675,-1.3263 8.627984,-2.4062 13.749681,-3.1891 l 0,-3.7699 c 0,-8.12642 -5.675616,-14.66913 -12.725792,-14.66913 z m 64.548984,0 c -7.050167,0 -12.725788,6.54271 -12.725788,14.66913 l 0,3.7699 c 5.121656,0.7829 9.771511,1.8628 13.750243,3.1891 4.307045,1.4357 7.840033,3.1466 10.39128,5.1572 0.468953,0.3696 0.906726,0.7534 1.310057,1.1503 l 0,-13.2665 c 0,-8.12642 -5.675616,-14.66913 -12.725792,-14.66913 z m -32.273927,19.90933 c -12.695286,0 -24.189378,1.7289 -32.385122,4.4608 -4.097872,1.366 -7.366607,2.991 -9.515839,4.6848 C 5.95006,1018.1886 5,1019.8344 5,1021.3862 c 0,1.5519 0.95006,3.1976 3.09932,4.8914 2.149232,1.6938 5.417967,3.3189 9.515839,4.6849 8.195744,2.7319 19.689836,4.4607 32.385122,4.4607 12.695314,0 24.188815,-1.7288 32.384559,-4.4607 4.097843,-1.366 7.366578,-2.9911 9.515838,-4.6849 C 94.049937,1024.5838 95,1022.9381 95,1021.3862 c 0,-1.5518 -0.950063,-3.1976 -3.099322,-4.8914 -2.14926,-1.6938 -5.417995,-3.3188 -9.515838,-4.6848 -8.195744,-2.7319 -19.689245,-4.4608 -32.384559,-4.4608 z m -15.231326,3.8501 30.461523,0 11.15835,16.3731 0.363496,0.5329 -53.505216,0 11.521847,-16.906 z m 5.394887,0.3561 -0.493881,1.1402 -5.78e-4,0 2.759531,0 0.425587,0 1.091619,0 0.092,0 0,0 1.728869,0 0.202632,-1.1407 -0.606767,0 -1.127183,0 -1.039127,0 -3.032718,0 z m 6.932978,0 -0.145626,1.1408 0.272059,0 0,0 1.184187,0 0,0 3.184551,0 1.184753,0 0.271496,0 -0.145625,-1.1408 -0.259642,0 -1.12718,0 -0.952204,0 -1.127744,0 -0.95277,0 -1.12718,0 -0.259075,0 z m 6.932975,0 0.202632,1.1408 1.728869,0 1.184189,0 3.184552,0 -0.494447,-1.1408 -3.032152,0 -2.167437,0 -0.606206,0 z m -19.35397,1.5466 -0.735464,1.1639 -0.26867,0.425 -0.301973,0.4775 -0.166511,0.2641 3.959526,0 0.340918,-0.7049 0.01751,-0.037 0.205455,-0.425 0.562742,-1.1639 -3.612395,0 -0.0012,0 z m 4.816336,0 -4.440422,10.2496 29.894264,0 -4.440427,-10.2496 -21.013415,0 z m 22.21736,0 0.562178,1.1639 0.205456,0.425 0.230289,0.4775 0.127564,0.2641 3.959524,0 -0.167072,-0.2641 -0.301409,-0.4775 -1.004134,-1.5889 -3.612396,0 z m -11.71037,1.3179 8.055641,2.9125 -8.055641,3.6616 -8.056205,-3.6616 8.056205,-2.9125 z m -17.115413,1.5178 -0.07563,0.1191 -0.334713,0.53 -0.292943,0.464 -0.360109,0.5695 -0.315521,0.4995 -0.388333,0.6141 -0.09144,0.1445 4.472599,0 0.06999,-0.1445 0.296896,-0.6141 0.241013,-0.4995 0.499528,-1.0335 0.256255,-0.53 0.05757,-0.1191 -4.035158,0 z m 30.195106,0 0.05757,0.1191 0.255688,0.53 0.224082,0.464 0.274883,0.5695 0.241014,0.4995 0.296893,0.6141 0.06999,0.1445 4.472598,0 -0.479208,-0.7586 -0.315519,-0.4995 -0.360112,-0.5695 -0.627652,-0.994 -0.07563,-0.1191 -4.034596,0 z m -32.461886,3.5876 -0.227466,0.359 -0.436311,0.6914 -0.420506,0.6655 -1.333762,2.1104 5.139195,0 1.019372,-2.1104 0.321165,-0.6655 0.02653,-0.055 0.480335,-0.9957 -4.568552,0 z m 34.194144,0 0.173282,0.359 0.334146,0.6914 0.321165,0.6655 1.019372,2.1104 5.139196,0 -1.333763,-2.1104 -0.420506,-0.6655 -0.436874,-0.6914 -0.226902,-0.359 -4.569116,0 z m -30.131327,4.6825 -1.232731,2.8448 0,0 5.103074,0 1.896508,0 2.769689,0 0.505172,-2.8447 1.755962,0 -0.364063,2.8447 0.435748,0 1.897071,0 5.103071,0 1.896508,0 0.43631,0 -0.363496,-2.8447 1.755399,0 0.505168,2.8447 2.769693,0 1.897071,0 5.103073,0 -1.232729,-2.8453 -8.097976,0 -4.858672,0 -1.483339,0 -4.995266,0 -3.103273,0 -8.097408,0 -5.78e-4,0 z M 5,1027.3969 l 0,4.971 c 0,1.5519 0.95006,3.1976 3.09932,4.8914 2.149232,1.6938 5.417967,3.3189 9.515839,4.6848 8.195744,2.732 19.689836,4.4608 32.385122,4.4608 12.695314,0 24.188815,-1.7288 32.384559,-4.4608 4.097843,-1.3659 7.366578,-2.991 9.515838,-4.6848 C 94.049937,1035.5655 95,1033.9198 95,1032.3679 l 0,-4.971 c -0.403331,0.397 -0.841104,0.7808 -1.310057,1.1503 -2.551247,2.0106 -6.084235,3.7216 -10.39128,5.1573 -8.614088,2.8714 -20.342773,4.6086 -33.298382,4.6086 -12.95561,0 -24.684857,-1.7372 -33.298946,-4.6086 -4.307032,-1.4357 -7.839465,-3.1467 -10.390715,-5.1573 C 5.84167,1028.1777 5.40336,1027.7939 5,1027.3969 Z"></path></g></svg>