<svg height="100" width="100" xmlns="http://www.w3.org/2000/svg"><path style="line-height:normal;text-indent:0;text-align:start;text-decoration-line:none;text-decoration-style:solid;text-decoration-color:#000;text-transform:none;block-progression:tb;white-space:normal;isolation:auto;mix-blend-mode:normal;solid-color:#000;solid-opacity:1" d="M49.975 5.957c-5.96 0-10.806 4.847-10.806 10.806A10.796 10.796 0 0049.975 27.57c5.996 0 10.856-4.81 10.856-10.806 0-5.959-4.86-10.806-10.856-10.806zM17.7 10.235c-5.959 0-10.806 4.846-10.806 10.805A10.797 10.797 0 0017.7 31.846c5.997 0 10.857-4.81 10.857-10.806 0-5.96-4.86-10.805-10.857-10.805zm64.549 0c-5.96 0-10.806 4.846-10.806 10.805a10.797 10.797 0 0010.806 10.806c5.996 0 10.856-4.81 10.856-10.806 0-5.96-4.86-10.805-10.856-10.805zM49.999 30.8c-7.05 0-12.725 6.542-12.725 14.669v7.212c4.052-.379 8.315-.585 12.726-.585 4.411 0 8.674.206 12.726.585V45.47C62.726 37.343 57.05 30.8 50 30.8zm-32.274 4.277C10.675 35.078 5 41.62 5 49.747v13.266a15.9 15.9 0 011.31-1.15c2.552-2.01 6.084-3.721 10.391-5.157 3.979-1.326 8.628-2.406 13.75-3.19v-3.77c0-8.126-5.676-14.668-12.726-14.668zm64.55 0c-7.051 0-12.727 6.542-12.727 14.669v3.77c5.122.783 9.772 1.863 13.75 3.189 4.308 1.436 7.84 3.146 10.392 5.157.469.37.907.753 1.31 1.15V49.747c0-8.127-5.676-14.67-12.726-14.67zM50 54.987c-12.695 0-24.19 1.729-32.385 4.46-4.098 1.367-7.366 2.992-9.516 4.686C5.95 65.826 5 67.473 5 69.024c0 1.552.95 3.198 3.1 4.891 2.149 1.694 5.417 3.32 9.515 4.685 8.196 2.732 19.69 4.461 32.385 4.461 12.696 0 24.19-1.729 32.385-4.46 4.098-1.367 7.366-2.992 9.516-4.686C94.05 72.222 95 70.575 95 69.024c0-1.552-.95-3.198-3.1-4.891-2.149-1.694-5.417-3.32-9.515-4.685-8.196-2.732-19.69-4.461-32.385-4.461zm-15.231 3.85H65.23L76.39 75.21l.363.533H23.247L34.77 58.837zm5.395.356l-.494 1.14H45.766l.203-1.14h-5.806zm6.933 0l-.146 1.141h6.097l-.145-1.14H47.096zm6.933 0l.202 1.141H60.33l-.494-1.14H54.03zM34.676 60.74l-.736 1.164-.268.425-.302.477-.167.264h3.96l.34-.705.018-.037.206-.425.562-1.163h-3.613zm4.816 0l-4.44 10.25h29.894l-4.44-10.25H39.492zm22.218 0l.562 1.164.205.425.23.477.128.264h3.96l-.168-.264-.3-.477-1.005-1.59H61.71zM50 62.058l8.055 2.912-8.056 3.662-8.056-3.662 8.056-2.912zm-17.116 1.518l-.076.119-.335.53-.293.464-.36.57-.315.499-.389.614-.091.144h4.473l.07-.144.297-.614.24-.5.5-1.033.256-.53.058-.12h-4.035zm30.195 0l.057.119.256.53.224.464.275.57.241.499.297.614.07.144h4.473l-.48-.758-.315-.5-.36-.57-.628-.993-.076-.12H63.08zm-32.462 3.587l-.228.36-.436.69-.42.666-1.334 2.11h5.14l1.018-2.11.322-.665.026-.055.48-.996h-4.568zm34.194 0l.173.36.335.69.32.666 1.02 2.11h5.14l-1.334-2.11-.421-.665-.437-.692-.227-.359h-4.569zM34.68 71.846l-1.233 2.844h9.77l.504-2.844h1.756l-.364 2.844h9.769l-.363-2.844h1.755l.505 2.844h9.77l-1.233-2.845H34.68zM5 75.035v4.97c0 1.553.95 3.198 3.1 4.892 2.149 1.694 5.417 3.319 9.515 4.685 8.196 2.732 19.69 4.46 32.385 4.46 12.696 0 24.19-1.728 32.385-4.46 4.098-1.366 7.366-2.991 9.516-4.685C94.05 83.203 95 81.557 95 80.006v-4.971c-.403.397-.841.78-1.31 1.15-2.551 2.01-6.084 3.722-10.391 5.157-8.614 2.872-20.343 4.609-33.299 4.609-12.955 0-24.685-1.737-33.299-4.609-4.307-1.435-7.84-3.146-10.39-5.157-.47-.37-.908-.753-1.311-1.15z" color="#000" font-weight="400" font-family="sans-serif" overflow="visible"/></svg>